<?xml version="1.0" standalone="no"?>
<!DOCTYPE svg PUBLIC "-//W3C//DTD SVG 20010904//EN"
 "http://www.w3.org/TR/2001/REC-SVG-20010904/DTD/svg10.dtd">
<svg version="1.0" xmlns="http://www.w3.org/2000/svg"
 width="260.000000pt" height="260.000000pt" viewBox="0 0 260.000000 260.000000"
 preserveAspectRatio="xMidYMid meet">
<metadata>
Created by potrace 1.11, written by Peter Selinger 2001-2013
</metadata>
<g transform="translate(0.000000,260.000000) scale(0.100000,-0.100000)"
fill="#000000" stroke="none">
<path d="M0 1300 l0 -1300 1300 0 1300 0 0 1300 0 1300 -1300 0 -1300 0 0
-1300z m1495 700 c141 -21 294 -88 391 -173 l44 -38 -67 -82 c-37 -45 -68 -83
-69 -85 -1 -2 -33 20 -70 49 -111 84 -207 119 -329 119 -139 0 -251 -46 -351
-145 -281 -277 -126 -755 266 -825 144 -26 327 27 444 130 l33 29 71 -79 72
-78 -52 -47 c-66 -59 -171 -118 -273 -152 -71 -24 -96 -27 -220 -27 -120 -1
-151 2 -215 22 -130 41 -206 87 -306 186 -75 75 -98 106 -132 176 -60 124 -75
199 -70 350 5 139 28 223 90 328 45 76 169 199 248 244 148 86 328 122 495 98z"/>
</g>
</svg>
